<mxfile host="app.diagrams.net" modified="2022-07-12T08:52:38.073Z" agent="5.0 (Windows NT 10.0; Win64; x64) AppleWebKit/537.36 (KHTML, like Gecko) Chrome/99.0.4844.51 Safari/537.36" etag="Qhj4M29OZ5tmMi9hzzY8" version="20.0.4" type="github">
  <diagram id="d_eoQcyl47mhIhAi5-vc" name="Page-1">
    <mxGraphModel dx="782" dy="506" grid="1" gridSize="10" guides="1" tooltips="1" connect="1" arrows="1" fold="1" page="1" pageScale="1" pageWidth="827" pageHeight="1169" math="0" shadow="0">
      <root>
        <mxCell id="0" />
        <mxCell id="1" parent="0" />
        <mxCell id="V55mfCqcuXJusjotYZyu-1" value="" style="ellipse;whiteSpace=wrap;html=1;" vertex="1" parent="1">
          <mxGeometry x="300" y="380" width="120" height="80" as="geometry" />
        </mxCell>
      </root>
    </mxGraphModel>
  </diagram>
</mxfile>
